<?xml version="1.0" encoding="UTF-8" standalone="no"?>
<!-- Created with Inkscape (http://www.inkscape.org/) -->

<svg
   xmlns:dc="http://purl.org/dc/elements/1.1/"
   xmlns:cc="http://creativecommons.org/ns#"
   xmlns:rdf="http://www.w3.org/1999/02/22-rdf-syntax-ns#"
   xmlns:svg="http://www.w3.org/2000/svg"
   xmlns="http://www.w3.org/2000/svg"
   xmlns:sodipodi="http://sodipodi.sourceforge.net/DTD/sodipodi-0.dtd"
   xmlns:inkscape="http://www.inkscape.org/namespaces/inkscape"
   width="350"
   height="150"
   viewBox="0 0 350 150"
   id="svg2"
   version="1.1"
   inkscape:version="0.91 r13725"
   sodipodi:docname="ecmwf-european-centre-for-medium-range-weather-forecasts.svg">
  <defs
     id="defs4" />
  <sodipodi:namedview
     id="base"
     pagecolor="#ffffff"
     bordercolor="#666666"
     borderopacity="1.0"
     inkscape:pageopacity="0.0"
     inkscape:pageshadow="2"
     inkscape:zoom="4.1228571"
     inkscape:cx="175"
     inkscape:cy="66.537688"
     inkscape:document-units="px"
     inkscape:current-layer="text42"
     showgrid="false"
     units="px"
     inkscape:window-width="1898"
     inkscape:window-height="976"
     inkscape:window-x="0"
     inkscape:window-y="0"
     inkscape:window-maximized="0" />
  <metadata
     id="metadata7">
    <rdf:RDF>
      <cc:Work
         rdf:about="">
        <dc:format>image/svg+xml</dc:format>
        <dc:type
           rdf:resource="http://purl.org/dc/dcmitype/StillImage" />
        <dc:title />
      </cc:Work>
    </rdf:RDF>
  </metadata>
  <g
     inkscape:label="Layer 1"
     inkscape:groupmode="layer"
     id="layer1"
     transform="translate(0,-902.36216)">
    <g
       id="g4219"
       transform="matrix(0.98820522,0,0,0.98820522,-254.81506,399.41081)">
      <g
         style="font-variant:normal;font-weight:bold;font-stretch:normal;font-size:69.37737274px;font-family:'Helvetica 55 Roman';-inkscape-font-specification:HelveticaNeue-Bold;writing-mode:lr-tb;fill:#244a91;fill-opacity:1;fill-rule:nonzero;stroke:none"
         id="text42">
        <path
           d="m 357.63529,553.31675 35.19682,0 0,9.85782 -22.15469,0 0,9.41744 20.83354,0 0,9.85782 -20.83354,0 0,11.58548 22.89995,0 0,9.85782 -35.94208,0 0,-50.57638 z"
           style=""
           id="path4142" />
        <path
           d="m 440.96619,601.11532 q -3.59082,1.86316 -7.48652,2.81168 -3.89571,0.94852 -8.13016,0.94852 -12.63563,0 -20.02053,-7.04614 -7.38489,-7.08001 -7.38489,-19.17363 0,-12.12749 7.38489,-19.17363 7.3849,-7.08001 20.02053,-7.08001 4.23445,0 8.13016,0.94852 3.8957,0.94852 7.48652,2.81168 l 0,10.46758 q -3.6247,-2.47292 -7.14777,-3.6247 -3.52307,-1.15177 -7.41877,-1.15177 -6.97839,0 -10.97572,4.47159 -3.99733,4.47159 -3.99733,12.33074 0,7.82528 3.99733,12.29687 3.99733,4.47159 10.97572,4.47159 3.8957,0 7.41877,-1.15177 3.52307,-1.15178 7.14777,-3.6247 l 0,10.46758 z"
           style=""
           id="path4144" />
        <path
           d="m 450.53162,553.31675 16.59908,0 11.51773,27.06666 11.58548,-27.06666 16.5652,0 0,50.57638 -12.33075,0 0,-36.99223 -11.65323,27.26991 -8.26566,0 -11.65323,-27.26991 0,36.99223 -12.36462,0 0,-50.57638 z"
           style=""
           id="path4146" />
        <path
           d="m 507.42024,553.31675 12.50012,0 8.73992,36.7551 8.67217,-36.7551 12.56788,0 8.67217,36.7551 8.73992,-36.7551 12.3985,0 -11.92424,50.57638 -15.0408,0 -9.1803,-38.44889 -9.07868,38.44889 -15.0408,0 -12.02586,-50.57638 z"
           style=""
           id="path4148" />
        <path
           d="m 575.48026,553.31675 35.19682,0 0,9.85782 -22.15469,0 0,9.41744 20.83354,0 0,9.85782 -20.83354,0 0,21.4433 -13.04213,0 0,-50.57638 z"
           style=""
           id="path4150" />
      </g>
      <text
         id="text46"
         style="font-variant:normal;font-weight:500;font-stretch:normal;font-size:7.77362537px;font-family:'Helvetica 65 Medium';-inkscape-font-specification:HelveticaNeue-Medium;writing-mode:lr-tb;fill:#244a91;fill-opacity:1;fill-rule:nonzero;stroke:none"
         x="355.57458"
         y="620.04077">
        <tspan
           id="tspan48"
           sodipodi:role="line"
           x="355.57458"
           y="620.04077"
           style="font-style:normal;font-variant:normal;font-weight:500;font-stretch:normal;font-size:8.125px;font-family:'Helvetica Neue';-inkscape-font-specification:'Helvetica Neue Medium'">EUROPEAN CENTRE FOR MEDIUM RANGE WEATHER FORECASTS</tspan>
      </text>
      <path
         inkscape:connector-curvature="0"
         id="path60"
         style="fill:#244a91;fill-opacity:1;fill-rule:nonzero;stroke:none"
         d="m 339.28177,583.75226 c -2.5,13.6 -14.5375,23.68375 -28.3525,23.68375 -4.02375,0 -8.3025,-1.0175 -11.925,-2.57625 -3.81,1.78 -8.015,2.57625 -12.29375,2.57625 -13.81125,0 -25.85,-9.90125 -28.315,-23.575 l 17.765,-0.0337 c 1.95875,4.42625 6.45625,7.29125 11.27625,7.29125 5.185,0 10.00625,-3.52125 11.74625,-8.37875 1.66875,4.9675 6.48875,8.37875 11.74625,8.37875 4.93375,0 9.50125,-2.865 11.45625,-7.325 l 16.89625,-0.0412 z" />
      <path
         inkscape:connector-curvature="0"
         id="path64"
         style="fill:#244a91;fill-opacity:1;fill-rule:nonzero;stroke:none"
         d="m 258.14207,581.76026 24.36375,0 0,-6.60125 -24.36375,0 c -0.4,2.2125 -0.36125,4.46 0,6.60125" />
      <path
         inkscape:connector-curvature="0"
         id="path68"
         style="fill:#244a91;fill-opacity:1;fill-rule:nonzero;stroke:none"
         d="m 339.28177,573.20264 c -2.5,-13.60375 -14.5375,-23.6825 -28.3525,-23.6825 -4.02375,0 -8.3025,1.015 -11.925,2.61125 -3.81,-1.81375 -8.015,-2.61125 -12.29375,-2.61125 -13.81125,0 -25.85,9.89875 -28.315,23.57125 l 17.765,0.0362 c 1.95875,-4.4225 6.45625,-7.2875 11.27625,-7.2875 5.185,0 10.00625,3.5175 11.74625,8.3725 1.66875,-4.96375 6.48875,-8.3725 11.74625,-8.3725 4.93375,0 9.50125,2.865 11.45625,7.325 l 16.89625,0.0375 z" />
    </g>
  </g>
</svg>
